<svg width="32" height="68" viewBox="0 0 16 34" fill="none" xmlns="http://www.w3.org/2000/svg">
    <path
        d="M4.47803 2.3656C4.47803 3.4316 3.61503 4.2956 2.55003 4.2956C1.48503 4.2956 0.622027 3.4316 0.622027 2.3656C0.622027 1.3006 1.48503 0.437599 2.55003 0.437599C3.61503 0.437599 4.47803 1.3006 4.47803 2.3656Z"
        fill="#00A5EC" />
    <path
        d="M9.86203 2.3656C9.86203 3.4316 8.99903 4.2956 7.93403 4.2956C6.86903 4.2956 6.00603 3.4316 6.00603 2.3656C6.00603 1.3006 6.86903 0.437599 7.93403 0.437599C8.99903 0.437599 9.86203 1.3006 9.86203 2.3656Z"
        fill="#00A5EC" />
    <path
        d="M15.246 2.3656C15.246 3.4316 14.383 4.2956 13.318 4.2956C12.253 4.2956 11.39 3.4316 11.39 2.3656C11.39 1.3006 12.253 0.437599 13.318 0.437599C14.383 0.437599 15.246 1.3006 15.246 2.3656Z"
        fill="#00A5EC" />
    <path
        d="M4.47803 8.2316C4.47803 9.2976 3.61503 10.1616 2.55003 10.1616C1.48503 10.1616 0.622027 9.2976 0.622027 8.2316C0.622027 7.1666 1.48503 6.3036 2.55003 6.3036C3.61503 6.3036 4.47803 7.1666 4.47803 8.2316Z"
        fill="#00A5EC" />
    <path
        d="M9.86203 8.2316C9.86203 9.2976 8.99903 10.1616 7.93403 10.1616C6.86903 10.1616 6.00603 9.2976 6.00603 8.2316C6.00603 7.1666 6.86903 6.3036 7.93403 6.3036C8.99903 6.3036 9.86203 7.1666 9.86203 8.2316Z"
        fill="#00A5EC" />
    <path
        d="M15.246 8.2316C15.246 9.2976 14.383 10.1616 13.318 10.1616C12.253 10.1616 11.39 9.2976 11.39 8.2316C11.39 7.1666 12.253 6.3036 13.318 6.3036C14.383 6.3036 15.246 7.1666 15.246 8.2316Z"
        fill="#00A5EC" />
    <path
        d="M4.47803 14.0977C4.47803 15.1637 3.61503 16.0277 2.55003 16.0277C1.48503 16.0277 0.622027 15.1637 0.622027 14.0977C0.622027 13.0327 1.48503 12.1697 2.55003 12.1697C3.61503 12.1697 4.47803 13.0327 4.47803 14.0977Z"
        fill="#00A5EC" />
    <path
        d="M9.86203 14.0977C9.86203 15.1637 8.99903 16.0277 7.93403 16.0277C6.86903 16.0277 6.00603 15.1637 6.00603 14.0977C6.00603 13.0327 6.86903 12.1697 7.93403 12.1697C8.99903 12.1697 9.86203 13.0327 9.86203 14.0977Z"
        fill="#00A5EC" />
    <path
        d="M15.246 14.0977C15.246 15.1637 14.383 16.0277 13.318 16.0277C12.253 16.0277 11.39 15.1637 11.39 14.0977C11.39 13.0327 12.253 12.1697 13.318 12.1697C14.383 12.1697 15.246 13.0327 15.246 14.0977Z"
        fill="#00A5EC" />
    <path
        d="M4.47803 19.9638C4.47803 21.0298 3.61503 21.8938 2.55003 21.8938C1.48503 21.8938 0.622027 21.0298 0.622027 19.9638C0.622027 18.8988 1.48503 18.0358 2.55003 18.0358C3.61503 18.0358 4.47803 18.8988 4.47803 19.9638Z"
        fill="#00A5EC" />
    <path
        d="M9.86203 19.9638C9.86203 21.0298 8.99903 21.8938 7.93403 21.8938C6.86903 21.8938 6.00603 21.0298 6.00603 19.9638C6.00603 18.8988 6.86903 18.0358 7.93403 18.0358C8.99903 18.0358 9.86203 18.8988 9.86203 19.9638Z"
        fill="#00A5EC" />
    <path
        d="M15.246 19.9638C15.246 21.0298 14.383 21.8938 13.318 21.8938C12.253 21.8938 11.39 21.0298 11.39 19.9638C11.39 18.8988 12.253 18.0358 13.318 18.0358C14.383 18.0358 15.246 18.8988 15.246 19.9638Z"
        fill="#00A5EC" />
    <path
        d="M4.47803 25.8299C4.47803 26.8959 3.61503 27.7599 2.55003 27.7599C1.48503 27.7599 0.622027 26.8959 0.622027 25.8299C0.622027 24.7649 1.48503 23.9019 2.55003 23.9019C3.61503 23.9019 4.47803 24.7649 4.47803 25.8299Z"
        fill="#00A5EC" />
    <path
        d="M9.86203 25.8299C9.86203 26.8959 8.99903 27.7599 7.93403 27.7599C6.86903 27.7599 6.00603 26.8959 6.00603 25.8299C6.00603 24.7649 6.86903 23.9019 7.93403 23.9019C8.99903 23.9019 9.86203 24.7649 9.86203 25.8299Z"
        fill="#00A5EC" />
    <path
        d="M15.246 25.8299C15.246 26.8959 14.383 27.7599 13.318 27.7599C12.253 27.7599 11.39 26.8959 11.39 25.8299C11.39 24.7649 12.253 23.9019 13.318 23.9019C14.383 23.9019 15.246 24.7649 15.246 25.8299Z"
        fill="#00A5EC" />
    <path
        d="M4.47803 31.6959C4.47803 32.7619 3.61503 33.6259 2.55003 33.6259C1.48503 33.6259 0.622027 32.7619 0.622027 31.6959C0.622027 30.6309 1.48503 29.7679 2.55003 29.7679C3.61503 29.7679 4.47803 30.6309 4.47803 31.6959Z"
        fill="#00A5EC" />
    <path
        d="M9.86203 31.6959C9.86203 32.7619 8.99903 33.6259 7.93403 33.6259C6.86903 33.6259 6.00603 32.7619 6.00603 31.6959C6.00603 30.6309 6.86903 29.7679 7.93403 29.7679C8.99903 29.7679 9.86203 30.6309 9.86203 31.6959Z"
        fill="#00A5EC" />
    <path
        d="M15.246 31.6959C15.246 32.7619 14.383 33.6259 13.318 33.6259C12.253 33.6259 11.39 32.7619 11.39 31.6959C11.39 30.6309 12.253 29.7679 13.318 29.7679C14.383 29.7679 15.246 30.6309 15.246 31.6959Z"
        fill="#00A5EC" />
</svg>