<svg width="118" height="40" viewBox="0 0 59 20" fill="none" xmlns="http://www.w3.org/2000/svg">
    <path
        d="M7.06001 15.9565H6.06001C6.06001 14.6995 5.03301 13.6765 3.77001 13.6765C2.50701 13.6765 1.48001 14.6995 1.48001 15.9565H0.480011C0.480011 14.1475 1.95601 12.6765 3.77001 12.6765C5.58401 12.6765 7.06001 14.1475 7.06001 15.9565Z"
        fill="#9DE8A0" />
    <path
        d="M9.35003 19.2466C7.53603 19.2466 6.06003 17.7706 6.06003 15.9566H7.06003C7.06003 17.2196 8.08703 18.2466 9.35003 18.2466C10.613 18.2466 11.64 17.2196 11.64 15.9566H12.64C12.64 17.7706 11.164 19.2466 9.35003 19.2466Z"
        fill="#9DE8A0" />
    <path
        d="M18.22 15.9565H17.22C17.22 14.6995 16.193 13.6765 14.93 13.6765C13.667 13.6765 12.64 14.6995 12.64 15.9565H11.64C11.64 14.1475 13.116 12.6765 14.93 12.6765C16.744 12.6765 18.22 14.1475 18.22 15.9565Z"
        fill="#9DE8A0" />
    <path
        d="M20.5101 19.2466C18.6961 19.2466 17.2201 17.7706 17.2201 15.9566H18.2201C18.2201 17.2406 19.2261 18.2466 20.5101 18.2466C21.7671 18.2466 22.7901 17.2196 22.7901 15.9566H23.7901C23.7901 17.7706 22.3191 19.2466 20.5101 19.2466Z"
        fill="#9DE8A0" />
    <path
        d="M29.37 15.9565H28.37C28.37 14.6995 27.343 13.6765 26.08 13.6765C24.817 13.6765 23.79 14.6995 23.79 15.9565H22.79C22.79 14.1475 24.266 12.6765 26.08 12.6765C27.894 12.6765 29.37 14.1475 29.37 15.9565Z"
        fill="#9DE8A0" />
    <path
        d="M31.66 19.2466C29.846 19.2466 28.37 17.7706 28.37 15.9566H29.37C29.37 17.2196 30.397 18.2466 31.66 18.2466C32.923 18.2466 33.95 17.2196 33.95 15.9566H34.95C34.95 17.7706 33.474 19.2466 31.66 19.2466Z"
        fill="#9DE8A0" />
    <path
        d="M18.626 9.6948H17.626C17.626 8.4378 16.599 7.4148 15.336 7.4148C14.073 7.4148 13.046 8.4378 13.046 9.6948H12.046C12.046 7.8858 13.522 6.4148 15.336 6.4148C17.15 6.4148 18.626 7.8858 18.626 9.6948Z"
        fill="#9DE8A0" />
    <path
        d="M20.9161 12.9849C19.1021 12.9849 17.6261 11.5089 17.6261 9.6949H18.6261C18.6261 10.9579 19.6531 11.9849 20.9161 11.9849C22.1791 11.9849 23.2061 10.9579 23.2061 9.6949H24.2061C24.2061 11.5089 22.7301 12.9849 20.9161 12.9849Z"
        fill="#9DE8A0" />
    <path
        d="M29.786 9.6948H28.786C28.786 8.4378 27.759 7.4148 26.496 7.4148C25.233 7.4148 24.206 8.4378 24.206 9.6948H23.206C23.206 7.8858 24.682 6.4148 26.496 6.4148C28.31 6.4148 29.786 7.8858 29.786 9.6948Z"
        fill="#9DE8A0" />
    <path
        d="M32.076 12.9849C30.262 12.9849 28.786 11.5089 28.786 9.6949H29.786C29.786 10.9789 30.792 11.9849 32.076 11.9849C33.333 11.9849 34.356 10.9579 34.356 9.6949H35.356C35.356 11.5089 33.885 12.9849 32.076 12.9849Z"
        fill="#9DE8A0" />
    <path
        d="M40.936 9.6948H39.936C39.936 8.4378 38.909 7.4148 37.646 7.4148C36.383 7.4148 35.356 8.4378 35.356 9.6948H34.356C34.356 7.8858 35.832 6.4148 37.646 6.4148C39.46 6.4148 40.936 7.8858 40.936 9.6948Z"
        fill="#9DE8A0" />
    <path
        d="M43.2261 12.9849C41.4121 12.9849 39.9361 11.5089 39.9361 9.6949H40.9361C40.9361 10.9579 41.9631 11.9849 43.2261 11.9849C44.4891 11.9849 45.5161 10.9579 45.5161 9.6949H46.5161C46.5161 11.5089 45.0401 12.9849 43.2261 12.9849Z"
        fill="#9DE8A0" />
    <path
        d="M30.193 3.4331H29.193C29.193 2.1761 28.166 1.1531 26.903 1.1531C25.64 1.1531 24.613 2.1761 24.613 3.4331H23.613C23.613 1.6241 25.089 0.153099 26.903 0.153099C28.717 0.153099 30.193 1.6241 30.193 3.4331Z"
        fill="#9DE8A0" />
    <path
        d="M32.483 6.7231C30.669 6.7231 29.193 5.2471 29.193 3.4331H30.193C30.193 4.6961 31.22 5.7231 32.483 5.7231C33.746 5.7231 34.773 4.6961 34.773 3.4331H35.773C35.773 5.2471 34.297 6.7231 32.483 6.7231Z"
        fill="#9DE8A0" />
    <path
        d="M41.353 3.4331H40.353C40.353 2.1761 39.326 1.1531 38.063 1.1531C36.8 1.1531 35.773 2.1761 35.773 3.4331H34.773C34.773 1.6241 36.249 0.153099 38.063 0.153099C39.877 0.153099 41.353 1.6241 41.353 3.4331Z"
        fill="#9DE8A0" />
    <path
        d="M43.6431 6.7231C41.8291 6.7231 40.3531 5.2471 40.3531 3.4331H41.3531C41.3531 4.7171 42.3591 5.7231 43.6431 5.7231C44.9001 5.7231 45.9231 4.6961 45.9231 3.4331H46.9231C46.9231 5.2471 45.4521 6.7231 43.6431 6.7231Z"
        fill="#9DE8A0" />
    <path
        d="M52.503 3.4331H51.503C51.503 2.1761 50.476 1.1531 49.213 1.1531C47.95 1.1531 46.923 2.1761 46.923 3.4331H45.923C45.923 1.6241 47.399 0.153099 49.213 0.153099C51.027 0.153099 52.503 1.6241 52.503 3.4331Z"
        fill="#9DE8A0" />
    <path
        d="M54.793 6.7231C52.979 6.7231 51.503 5.2471 51.503 3.4331H52.503C52.503 4.6961 53.53 5.7231 54.793 5.7231C56.056 5.7231 57.083 4.6961 57.083 3.4331H58.083C58.083 5.2471 56.607 6.7231 54.793 6.7231Z"
        fill="#9DE8A0" />
</svg>