<svg width="30" height="31" viewBox="0 0 30 31" fill="none" xmlns="http://www.w3.org/2000/svg">
<path d="M23.4738 12.9605C18.8917 11.3072 15.3912 7.54096 12.7806 2.09983C11.9636 4.83315 10.7373 7.20858 8.96594 9.08828C7.22622 10.9344 4.98167 12.2799 2.1374 13.0249C7.1866 15.1812 10.8409 18.6282 12.7031 23.6759C14.7969 18.8575 18.4085 15.2933 23.4738 12.9605Z" stroke="black"/>
<path d="M28.3836 24.3147C26.3921 23.4302 24.8283 21.7456 23.6209 19.4366C23.2045 20.611 22.6203 21.6497 21.8188 22.5002C21.0372 23.3296 20.0643 23.9637 18.8751 24.3732C21.0068 25.4151 22.6128 26.9586 23.5498 29.1032C24.585 27.0223 26.2067 25.4286 28.3836 24.3147Z" stroke="black"/>
</svg>
