<svg width="69" height="7" viewBox="0 0 69 7" fill="none" xmlns="http://www.w3.org/2000/svg">
    <path
        d="M61.89 3.2901H62.89C62.89 4.5471 63.917 5.5701 65.18 5.5701C66.443 5.5701 67.47 4.5471 67.47 3.2901H68.47C68.47 5.0991 66.994 6.5701 65.18 6.5701C63.366 6.5701 61.89 5.0991 61.89 3.2901Z"
        fill="#00A5EC" />
    <path
        d="M59.6 9.53674e-07C61.414 9.53674e-07 62.89 1.476 62.89 3.29H61.89C61.89 2.027 60.863 1 59.6 1C58.337 1 57.31 2.027 57.31 3.29H56.31C56.31 1.476 57.786 9.53674e-07 59.6 9.53674e-07Z"
        fill="#00A5EC" />
    <path
        d="M50.73 3.2901H51.73C51.73 4.5471 52.757 5.5701 54.02 5.5701C55.283 5.5701 56.31 4.5471 56.31 3.2901H57.31C57.31 5.0991 55.834 6.5701 54.02 6.5701C52.206 6.5701 50.73 5.0991 50.73 3.2901Z"
        fill="#00A5EC" />
    <path
        d="M48.44 9.53674e-07C50.254 9.53674e-07 51.73 1.476 51.73 3.29H50.73C50.73 2.006 49.724 1 48.44 1C47.183 1 46.16 2.027 46.16 3.29H45.16C45.16 1.476 46.631 9.53674e-07 48.44 9.53674e-07Z"
        fill="#00A5EC" />
    <path
        d="M39.58 3.2901H40.58C40.58 4.5471 41.607 5.5701 42.87 5.5701C44.133 5.5701 45.16 4.5471 45.16 3.2901H46.16C46.16 5.0991 44.684 6.5701 42.87 6.5701C41.056 6.5701 39.58 5.0991 39.58 3.2901Z"
        fill="#00A5EC" />
    <path
        d="M37.29 9.53674e-07C39.104 9.53674e-07 40.58 1.476 40.58 3.29H39.58C39.58 2.027 38.553 1 37.29 1C36.027 1 35 2.027 35 3.29H34C34 1.476 35.476 9.53674e-07 37.29 9.53674e-07Z"
        fill="#00A5EC" />
    <path
        d="M28.39 3.2901H29.39C29.39 4.5471 30.417 5.5701 31.68 5.5701C32.943 5.5701 33.97 4.5471 33.97 3.2901H34.97C34.97 5.0991 33.494 6.5701 31.68 6.5701C29.866 6.5701 28.39 5.0991 28.39 3.2901Z"
        fill="#00A5EC" />
    <path
        d="M26.1 9.53674e-07C27.914 9.53674e-07 29.39 1.476 29.39 3.29H28.39C28.39 2.027 27.363 1 26.1 1C24.837 1 23.81 2.027 23.81 3.29H22.81C22.81 1.476 24.286 9.53674e-07 26.1 9.53674e-07Z"
        fill="#00A5EC" />
    <path
        d="M17.23 3.2901H18.23C18.23 4.5471 19.257 5.5701 20.52 5.5701C21.783 5.5701 22.81 4.5471 22.81 3.2901H23.81C23.81 5.0991 22.334 6.5701 20.52 6.5701C18.706 6.5701 17.23 5.0991 17.23 3.2901Z"
        fill="#00A5EC" />
    <path
        d="M14.94 9.53674e-07C16.754 9.53674e-07 18.23 1.476 18.23 3.29H17.23C17.23 2.006 16.224 1 14.94 1C13.683 1 12.66 2.027 12.66 3.29H11.66C11.66 1.476 13.131 9.53674e-07 14.94 9.53674e-07Z"
        fill="#00A5EC" />
    <path
        d="M6.08002 3.2901H7.08002C7.08002 4.5471 8.10702 5.5701 9.37002 5.5701C10.633 5.5701 11.66 4.5471 11.66 3.2901H12.66C12.66 5.0991 11.184 6.5701 9.37002 6.5701C7.55602 6.5701 6.08002 5.0991 6.08002 3.2901Z"
        fill="#00A5EC" />
    <path
        d="M3.79 9.53674e-07C5.604 9.53674e-07 7.08 1.476 7.08 3.29H6.08C6.08 2.027 5.053 1 3.79 1C2.527 1 1.5 2.027 1.5 3.29H0.5C0.5 1.476 1.976 9.53674e-07 3.79 9.53674e-07Z"
        fill="#00A5EC" />
</svg>